<svg xmlns="http://www.w3.org/2000/svg" version="1.1" xmlns:xlink="http://www.w3.org/1999/xlink" xmlns:svgjs="http://svgjs.com/svgjs" width="1440" height="565" preserveAspectRatio="none" viewBox="0 0 1440 565"><g mask="url(&quot;#SvgjsMask1142&quot;)" fill="none"><rect width="1440" height="565" x="0" y="0" fill="rgba(55, 35, 63, 1)"></rect><path d="M18.73 -115.66L123.52 -55.16L123.52 65.84L18.73 126.34L-86.06 65.84L-86.06 -55.16zM123.52 65.84L228.31 126.34L228.31 247.34L123.52 307.84L18.73 247.34L18.73 126.34zM123.52 428.84L228.31 489.34L228.31 610.34L123.52 670.84L18.73 610.34L18.73 489.34zM228.31 -115.66L333.11 -55.16L333.11 65.84L228.31 126.34L123.52 65.84L123.52 -55.16zM333.11 65.84L437.9 126.34L437.9 247.34L333.11 307.84L228.31 247.34L228.31 126.34zM228.31 247.34L333.11 307.84L333.11 428.84L228.31 489.34L123.52 428.84L123.52 307.84zM333.11 428.84L437.9 489.34L437.9 610.34L333.11 670.84L228.31 610.34L228.31 489.34zM542.69 65.84L647.48 126.34L647.48 247.34L542.69 307.84L437.9 247.34L437.9 126.34zM437.9 247.34L542.69 307.84L542.69 428.84L437.9 489.34L333.11 428.84L333.11 307.84zM647.48 247.34L752.27 307.84L752.27 428.84L647.48 489.34L542.69 428.84L542.69 307.84zM857.07 -115.66L961.86 -55.16L961.86 65.84L857.07 126.34L752.27 65.84L752.27 -55.16zM961.86 65.84L1066.65 126.34L1066.65 247.34L961.86 307.84L857.07 247.34L857.07 126.34zM961.86 428.84L1066.65 489.34L1066.65 610.34L961.86 670.84L857.07 610.34L857.07 489.34zM1066.65 -115.66L1171.44 -55.16L1171.44 65.84L1066.65 126.34L961.86 65.84L961.86 -55.16zM1171.44 428.84L1276.23 489.34L1276.23 610.34L1171.44 670.84L1066.65 610.34L1066.65 489.34zM1276.23 -115.66L1381.03 -55.16L1381.03 65.84L1276.23 126.34L1171.44 65.84L1171.44 -55.16zM1276.23 247.34L1381.03 307.84L1381.03 428.84L1276.23 489.34L1171.44 428.84L1171.44 307.84zM1381.03 428.84L1485.82 489.34L1485.82 610.34L1381.03 670.84L1276.23 610.34L1276.23 489.34z" stroke="rgba(90, 35, 135, 1)" stroke-width="2"></path><path d="M6.63 -115.66 a12.1 12.1 0 1 0 24.2 0 a12.1 12.1 0 1 0 -24.2 0zM111.42 -55.16 a12.1 12.1 0 1 0 24.2 0 a12.1 12.1 0 1 0 -24.2 0zM111.42 65.84 a12.1 12.1 0 1 0 24.2 0 a12.1 12.1 0 1 0 -24.2 0zM6.63 126.34 a12.1 12.1 0 1 0 24.2 0 a12.1 12.1 0 1 0 -24.2 0zM-98.16 65.84 a12.1 12.1 0 1 0 24.2 0 a12.1 12.1 0 1 0 -24.2 0zM-98.16 -55.16 a12.1 12.1 0 1 0 24.2 0 a12.1 12.1 0 1 0 -24.2 0zM216.21 126.34 a12.1 12.1 0 1 0 24.2 0 a12.1 12.1 0 1 0 -24.2 0zM216.21 247.34 a12.1 12.1 0 1 0 24.2 0 a12.1 12.1 0 1 0 -24.2 0zM111.42 307.84 a12.1 12.1 0 1 0 24.2 0 a12.1 12.1 0 1 0 -24.2 0zM6.63 247.34 a12.1 12.1 0 1 0 24.2 0 a12.1 12.1 0 1 0 -24.2 0zM111.42 428.84 a12.1 12.1 0 1 0 24.2 0 a12.1 12.1 0 1 0 -24.2 0zM216.21 489.34 a12.1 12.1 0 1 0 24.2 0 a12.1 12.1 0 1 0 -24.2 0zM216.21 610.34 a12.1 12.1 0 1 0 24.2 0 a12.1 12.1 0 1 0 -24.2 0zM111.42 670.84 a12.1 12.1 0 1 0 24.2 0 a12.1 12.1 0 1 0 -24.2 0zM6.63 610.34 a12.1 12.1 0 1 0 24.2 0 a12.1 12.1 0 1 0 -24.2 0zM6.63 489.34 a12.1 12.1 0 1 0 24.2 0 a12.1 12.1 0 1 0 -24.2 0zM216.21 -115.66 a12.1 12.1 0 1 0 24.2 0 a12.1 12.1 0 1 0 -24.2 0zM321.01 -55.16 a12.1 12.1 0 1 0 24.2 0 a12.1 12.1 0 1 0 -24.2 0zM321.01 65.84 a12.1 12.1 0 1 0 24.2 0 a12.1 12.1 0 1 0 -24.2 0zM425.8 126.34 a12.1 12.1 0 1 0 24.2 0 a12.1 12.1 0 1 0 -24.2 0zM425.8 247.34 a12.1 12.1 0 1 0 24.2 0 a12.1 12.1 0 1 0 -24.2 0zM321.01 307.84 a12.1 12.1 0 1 0 24.2 0 a12.1 12.1 0 1 0 -24.2 0zM321.01 428.84 a12.1 12.1 0 1 0 24.2 0 a12.1 12.1 0 1 0 -24.2 0zM425.8 489.34 a12.1 12.1 0 1 0 24.2 0 a12.1 12.1 0 1 0 -24.2 0zM425.8 610.34 a12.1 12.1 0 1 0 24.2 0 a12.1 12.1 0 1 0 -24.2 0zM321.01 670.84 a12.1 12.1 0 1 0 24.2 0 a12.1 12.1 0 1 0 -24.2 0zM530.59 65.84 a12.1 12.1 0 1 0 24.2 0 a12.1 12.1 0 1 0 -24.2 0zM635.38 126.34 a12.1 12.1 0 1 0 24.2 0 a12.1 12.1 0 1 0 -24.2 0zM635.38 247.34 a12.1 12.1 0 1 0 24.2 0 a12.1 12.1 0 1 0 -24.2 0zM530.59 307.84 a12.1 12.1 0 1 0 24.2 0 a12.1 12.1 0 1 0 -24.2 0zM530.59 428.84 a12.1 12.1 0 1 0 24.2 0 a12.1 12.1 0 1 0 -24.2 0zM740.17 307.84 a12.1 12.1 0 1 0 24.2 0 a12.1 12.1 0 1 0 -24.2 0zM740.17 428.84 a12.1 12.1 0 1 0 24.2 0 a12.1 12.1 0 1 0 -24.2 0zM635.38 489.34 a12.1 12.1 0 1 0 24.2 0 a12.1 12.1 0 1 0 -24.2 0zM844.97 -115.66 a12.1 12.1 0 1 0 24.2 0 a12.1 12.1 0 1 0 -24.2 0zM949.76 -55.16 a12.1 12.1 0 1 0 24.2 0 a12.1 12.1 0 1 0 -24.2 0zM949.76 65.84 a12.1 12.1 0 1 0 24.2 0 a12.1 12.1 0 1 0 -24.2 0zM844.97 126.34 a12.1 12.1 0 1 0 24.2 0 a12.1 12.1 0 1 0 -24.2 0zM740.17 65.84 a12.1 12.1 0 1 0 24.2 0 a12.1 12.1 0 1 0 -24.2 0zM740.17 -55.16 a12.1 12.1 0 1 0 24.2 0 a12.1 12.1 0 1 0 -24.2 0zM1054.55 126.34 a12.1 12.1 0 1 0 24.2 0 a12.1 12.1 0 1 0 -24.2 0zM1054.55 247.34 a12.1 12.1 0 1 0 24.2 0 a12.1 12.1 0 1 0 -24.2 0zM949.76 307.84 a12.1 12.1 0 1 0 24.2 0 a12.1 12.1 0 1 0 -24.2 0zM844.97 247.34 a12.1 12.1 0 1 0 24.2 0 a12.1 12.1 0 1 0 -24.2 0zM949.76 428.84 a12.1 12.1 0 1 0 24.2 0 a12.1 12.1 0 1 0 -24.2 0zM1054.55 489.34 a12.1 12.1 0 1 0 24.2 0 a12.1 12.1 0 1 0 -24.2 0zM1054.55 610.34 a12.1 12.1 0 1 0 24.2 0 a12.1 12.1 0 1 0 -24.2 0zM949.76 670.84 a12.1 12.1 0 1 0 24.2 0 a12.1 12.1 0 1 0 -24.2 0zM844.97 610.34 a12.1 12.1 0 1 0 24.2 0 a12.1 12.1 0 1 0 -24.2 0zM844.97 489.34 a12.1 12.1 0 1 0 24.2 0 a12.1 12.1 0 1 0 -24.2 0zM1054.55 -115.66 a12.1 12.1 0 1 0 24.2 0 a12.1 12.1 0 1 0 -24.2 0zM1159.34 -55.16 a12.1 12.1 0 1 0 24.2 0 a12.1 12.1 0 1 0 -24.2 0zM1159.34 65.84 a12.1 12.1 0 1 0 24.2 0 a12.1 12.1 0 1 0 -24.2 0zM1159.34 428.84 a12.1 12.1 0 1 0 24.2 0 a12.1 12.1 0 1 0 -24.2 0zM1264.13 489.34 a12.1 12.1 0 1 0 24.2 0 a12.1 12.1 0 1 0 -24.2 0zM1264.13 610.34 a12.1 12.1 0 1 0 24.2 0 a12.1 12.1 0 1 0 -24.2 0zM1159.34 670.84 a12.1 12.1 0 1 0 24.2 0 a12.1 12.1 0 1 0 -24.2 0zM1264.13 -115.66 a12.1 12.1 0 1 0 24.2 0 a12.1 12.1 0 1 0 -24.2 0zM1368.93 -55.16 a12.1 12.1 0 1 0 24.2 0 a12.1 12.1 0 1 0 -24.2 0zM1368.93 65.84 a12.1 12.1 0 1 0 24.2 0 a12.1 12.1 0 1 0 -24.2 0zM1264.13 126.34 a12.1 12.1 0 1 0 24.2 0 a12.1 12.1 0 1 0 -24.2 0zM1264.13 247.34 a12.1 12.1 0 1 0 24.2 0 a12.1 12.1 0 1 0 -24.2 0zM1368.93 307.84 a12.1 12.1 0 1 0 24.2 0 a12.1 12.1 0 1 0 -24.2 0zM1368.93 428.84 a12.1 12.1 0 1 0 24.2 0 a12.1 12.1 0 1 0 -24.2 0zM1159.34 307.84 a12.1 12.1 0 1 0 24.2 0 a12.1 12.1 0 1 0 -24.2 0zM1473.72 489.34 a12.1 12.1 0 1 0 24.2 0 a12.1 12.1 0 1 0 -24.2 0zM1473.72 610.34 a12.1 12.1 0 1 0 24.2 0 a12.1 12.1 0 1 0 -24.2 0zM1368.93 670.84 a12.1 12.1 0 1 0 24.2 0 a12.1 12.1 0 1 0 -24.2 0z" fill="rgba(90, 35, 135, 1)"></path><path d="M95.61 28.37L143.25 55.87L143.25 110.87L95.61 138.37L47.98 110.87L47.98 55.87zM190.88 193.37L238.51 220.87L238.51 275.87L190.88 303.37L143.25 275.87L143.25 220.87zM286.14 358.37L333.78 385.87L333.78 440.87L286.14 468.37L238.51 440.87L238.51 385.87zM238.51 440.87L286.14 468.37L286.14 523.37L238.51 550.87L190.88 523.37L190.88 468.37zM381.41 28.37L429.04 55.87L429.04 110.87L381.41 138.37L333.78 110.87L333.78 55.87zM381.41 193.37L429.04 220.87L429.04 275.87L381.41 303.37L333.78 275.87L333.78 220.87zM381.41 358.37L429.04 385.87L429.04 440.87L381.41 468.37L333.78 440.87L333.78 385.87zM429.04 -54.13L476.67 -26.63L476.67 28.37L429.04 55.87L381.41 28.37L381.41 -26.63zM476.67 193.37L524.31 220.87L524.31 275.87L476.67 303.37L429.04 275.87L429.04 220.87zM429.04 275.87L476.67 303.37L476.67 358.37L429.04 385.87L381.41 358.37L381.41 303.37zM524.31 440.87L571.94 468.37L571.94 523.37L524.31 550.87L476.67 523.37L476.67 468.37zM619.57 -54.13L667.21 -26.63L667.21 28.37L619.57 55.87L571.94 28.37L571.94 -26.63zM667.21 523.37L714.84 550.87L714.84 605.87L667.21 633.37L619.57 605.87L619.57 550.87zM714.84 440.87L762.47 468.37L762.47 523.37L714.84 550.87L667.21 523.37L667.21 468.37zM857.74 28.37L905.37 55.87L905.37 110.87L857.74 138.37L810.1 110.87L810.1 55.87zM810.1 275.87L857.74 303.37L857.74 358.37L810.1 385.87L762.47 358.37L762.47 303.37zM905.37 -54.13L953 -26.63L953 28.37L905.37 55.87L857.74 28.37L857.74 -26.63zM1000.63 -54.13L1048.27 -26.63L1048.27 28.37L1000.63 55.87L953 28.37L953 -26.63zM1048.27 193.37L1095.9 220.87L1095.9 275.87L1048.27 303.37L1000.63 275.87L1000.63 220.87zM1000.63 440.87L1048.27 468.37L1048.27 523.37L1000.63 550.87L953 523.37L953 468.37zM1048.27 523.37L1095.9 550.87L1095.9 605.87L1048.27 633.37L1000.63 605.87L1000.63 550.87zM1143.53 523.37L1191.17 550.87L1191.17 605.87L1143.53 633.37L1095.9 605.87L1095.9 550.87zM1238.8 193.37L1286.43 220.87L1286.43 275.87L1238.8 303.37L1191.17 275.87L1191.17 220.87zM1191.17 275.87L1238.8 303.37L1238.8 358.37L1191.17 385.87L1143.53 358.37L1143.53 303.37zM1191.17 440.87L1238.8 468.37L1238.8 523.37L1191.17 550.87L1143.53 523.37L1143.53 468.37zM1238.8 523.37L1286.43 550.87L1286.43 605.87L1238.8 633.37L1191.17 605.87L1191.17 550.87zM1286.43 110.87L1334.06 138.37L1334.06 193.37L1286.43 220.87L1238.8 193.37L1238.8 138.37zM1286.43 275.87L1334.06 303.37L1334.06 358.37L1286.43 385.87L1238.8 358.37L1238.8 303.37zM1381.7 -54.13L1429.33 -26.63L1429.33 28.37L1381.7 55.87L1334.06 28.37L1334.06 -26.63zM1429.33 358.37L1476.96 385.87L1476.96 440.87L1429.33 468.37L1381.7 440.87L1381.7 385.87zM1476.96 110.87L1524.6 138.37L1524.6 193.37L1476.96 220.87L1429.33 193.37L1429.33 138.37zM1524.6 358.37L1572.23 385.87L1572.23 440.87L1524.6 468.37L1476.96 440.87L1476.96 385.87zM1524.6 523.37L1572.23 550.87L1572.23 605.87L1524.6 633.37L1476.96 605.87L1476.96 550.87z" stroke="rgba(155, 202, 163, 0.93)" stroke-width="2"></path></g><defs><mask id="SvgjsMask1142"><rect width="1440" height="565" fill="#ffffff"></rect></mask></defs></svg>