<svg xmlns="http://www.w3.org/2000/svg" version="1.1" xmlns:xlink="http://www.w3.org/1999/xlink" xmlns:svgjs="http://svgjs.com/svgjs" width="1440" height="563" preserveAspectRatio="none" viewBox="0 0 1440 563"><g mask="url(&quot;#SvgjsMask1022&quot;)" fill="none"><rect width="1440" height="563" x="0" y="0" fill="rgba(212, 218, 165, 1)"></rect><path d="M-83.72 408.44L-83.72 408.44" stroke="rgba(188, 41, 22, 1)" stroke-width="1.5"></path><path d="M-83.72 408.44L-94.38 522.3" stroke="rgba(188, 41, 22, 1)" stroke-width="1.5"></path><path d="M-83.72 408.44L78.84 493.99" stroke="rgba(188, 41, 22, 1)" stroke-width="1.5"></path><path d="M-83.72 408.44L106.33 357.2" stroke="rgba(188, 41, 22, 1)" stroke-width="1.5"></path><path d="M-83.72 408.44L-111.94 667.92" stroke="rgba(188, 41, 22, 1)" stroke-width="1.5"></path><path d="M-94.38 522.3L-94.38 522.3" stroke="rgba(188, 41, 22, 1)" stroke-width="1.5"></path><path d="M-94.38 522.3L-111.94 667.92" stroke="rgba(188, 41, 22, 1)" stroke-width="1.5"></path><path d="M-94.38 522.3L78.84 493.99" stroke="rgba(188, 41, 22, 1)" stroke-width="1.5"></path><path d="M-94.38 522.3L88.94 645.73" stroke="rgba(188, 41, 22, 1)" stroke-width="1.5"></path><path d="M-94.38 522.3L106.33 357.2" stroke="rgba(188, 41, 22, 1)" stroke-width="1.5"></path><path d="M-111.94 667.92L-111.94 667.92" stroke="rgba(188, 41, 22, 1)" stroke-width="1.5"></path><path d="M-111.94 667.92L88.94 645.73" stroke="rgba(188, 41, 22, 1)" stroke-width="1.5"></path><path d="M106.33 357.2L106.33 357.2" stroke="rgba(188, 41, 22, 1)" stroke-width="1.5"></path><path d="M106.33 357.2L78.84 493.99" stroke="rgba(188, 41, 22, 1)" stroke-width="1.5"></path><path d="M106.33 357.2L237.33 411.64" stroke="rgba(188, 41, 22, 1)" stroke-width="1.5"></path><path d="M106.33 357.2L191.25 528.1" stroke="rgba(188, 41, 22, 1)" stroke-width="1.5"></path><path d="M106.33 357.2L88.94 645.73" stroke="rgba(188, 41, 22, 1)" stroke-width="1.5"></path><path d="M78.84 493.99L78.84 493.99" stroke="rgba(188, 41, 22, 1)" stroke-width="1.5"></path><path d="M78.84 493.99L191.25 528.1" stroke="rgba(188, 41, 22, 1)" stroke-width="1.5"></path><path d="M88.94 645.73L88.94 645.73" stroke="rgba(188, 41, 22, 1)" stroke-width="1.5"></path><path d="M88.94 645.73L200.99 708.41" stroke="rgba(188, 41, 22, 1)" stroke-width="1.5"></path><path d="M88.94 645.73L78.84 493.99" stroke="rgba(188, 41, 22, 1)" stroke-width="1.5"></path><path d="M88.94 645.73L191.25 528.1" stroke="rgba(188, 41, 22, 1)" stroke-width="1.5"></path><path d="M237.33 411.64L237.33 411.64" stroke="rgba(188, 41, 22, 1)" stroke-width="1.5"></path><path d="M237.33 411.64L191.25 528.1" stroke="rgba(188, 41, 22, 1)" stroke-width="1.5"></path><path d="M237.33 411.64L353.36 527.96" stroke="rgba(188, 41, 22, 1)" stroke-width="1.5"></path><path d="M237.33 411.64L78.84 493.99" stroke="rgba(188, 41, 22, 1)" stroke-width="1.5"></path><path d="M237.33 411.64L88.94 645.73" stroke="rgba(188, 41, 22, 1)" stroke-width="1.5"></path><path d="M237.33 411.64L200.99 708.41" stroke="rgba(188, 41, 22, 1)" stroke-width="1.5"></path><path d="M191.25 528.1L191.25 528.1" stroke="rgba(188, 41, 22, 1)" stroke-width="1.5"></path><path d="M191.25 528.1L353.36 527.96" stroke="rgba(188, 41, 22, 1)" stroke-width="1.5"></path><path d="M191.25 528.1L200.99 708.41" stroke="rgba(188, 41, 22, 1)" stroke-width="1.5"></path><path d="M200.99 708.41L200.99 708.41" stroke="rgba(188, 41, 22, 1)" stroke-width="1.5"></path><path d="M200.99 708.41L338.35 703.16" stroke="rgba(188, 41, 22, 1)" stroke-width="1.5"></path><path d="M200.99 708.41L353.36 527.96" stroke="rgba(188, 41, 22, 1)" stroke-width="1.5"></path><path d="M200.99 708.41L78.84 493.99" stroke="rgba(188, 41, 22, 1)" stroke-width="1.5"></path><path d="M353.36 527.96L353.36 527.96" stroke="rgba(188, 41, 22, 1)" stroke-width="1.5"></path><path d="M353.36 527.96L338.35 703.16" stroke="rgba(188, 41, 22, 1)" stroke-width="1.5"></path><path d="M353.36 527.96L529.22 537.39" stroke="rgba(188, 41, 22, 1)" stroke-width="1.5"></path><path d="M338.35 703.16L338.35 703.16" stroke="rgba(188, 41, 22, 1)" stroke-width="1.5"></path><path d="M338.35 703.16L497.39 637.75" stroke="rgba(188, 41, 22, 1)" stroke-width="1.5"></path><path d="M338.35 703.16L191.25 528.1" stroke="rgba(188, 41, 22, 1)" stroke-width="1.5"></path><path d="M338.35 703.16L529.22 537.39" stroke="rgba(188, 41, 22, 1)" stroke-width="1.5"></path><path d="M338.35 703.16L88.94 645.73" stroke="rgba(188, 41, 22, 1)" stroke-width="1.5"></path><path d="M547.04 389.81L547.04 389.81" stroke="rgba(188, 41, 22, 1)" stroke-width="1.5"></path><path d="M547.04 389.81L529.22 537.39" stroke="rgba(188, 41, 22, 1)" stroke-width="1.5"></path><path d="M547.04 389.81L696.96 366.29" stroke="rgba(188, 41, 22, 1)" stroke-width="1.5"></path><path d="M547.04 389.81L665.81 232.63" stroke="rgba(188, 41, 22, 1)" stroke-width="1.5"></path><path d="M529.22 537.39L529.22 537.39" stroke="rgba(188, 41, 22, 1)" stroke-width="1.5"></path><path d="M529.22 537.39L497.39 637.75" stroke="rgba(188, 41, 22, 1)" stroke-width="1.5"></path><path d="M529.22 537.39L663.23 556.3" stroke="rgba(188, 41, 22, 1)" stroke-width="1.5"></path><path d="M497.39 637.75L497.39 637.75" stroke="rgba(188, 41, 22, 1)" stroke-width="1.5"></path><path d="M665.81 232.63L665.81 232.63" stroke="rgba(188, 41, 22, 1)" stroke-width="1.5"></path><path d="M665.81 232.63L696.96 366.29" stroke="rgba(188, 41, 22, 1)" stroke-width="1.5"></path><path d="M665.81 232.63L833.13 209.76" stroke="rgba(188, 41, 22, 1)" stroke-width="1.5"></path><path d="M665.81 232.63L835.62 358.73" stroke="rgba(188, 41, 22, 1)" stroke-width="1.5"></path><path d="M696.96 366.29L696.96 366.29" stroke="rgba(188, 41, 22, 1)" stroke-width="1.5"></path><path d="M696.96 366.29L835.62 358.73" stroke="rgba(188, 41, 22, 1)" stroke-width="1.5"></path><path d="M663.23 556.3L663.23 556.3" stroke="rgba(188, 41, 22, 1)" stroke-width="1.5"></path><path d="M663.23 556.3L709.13 678.33" stroke="rgba(188, 41, 22, 1)" stroke-width="1.5"></path><path d="M709.13 678.33L709.13 678.33" stroke="rgba(188, 41, 22, 1)" stroke-width="1.5"></path><path d="M709.13 678.33L854.91 684.03" stroke="rgba(188, 41, 22, 1)" stroke-width="1.5"></path><path d="M709.13 678.33L796.77 537.65" stroke="rgba(188, 41, 22, 1)" stroke-width="1.5"></path><path d="M709.13 678.33L497.39 637.75" stroke="rgba(188, 41, 22, 1)" stroke-width="1.5"></path><path d="M833.13 209.76L833.13 209.76" stroke="rgba(188, 41, 22, 1)" stroke-width="1.5"></path><path d="M833.13 209.76L965.54 214.56" stroke="rgba(188, 41, 22, 1)" stroke-width="1.5"></path><path d="M833.13 209.76L835.62 358.73" stroke="rgba(188, 41, 22, 1)" stroke-width="1.5"></path><path d="M835.62 358.73L835.62 358.73" stroke="rgba(188, 41, 22, 1)" stroke-width="1.5"></path><path d="M835.62 358.73L981.46 411.58" stroke="rgba(188, 41, 22, 1)" stroke-width="1.5"></path><path d="M835.62 358.73L796.77 537.65" stroke="rgba(188, 41, 22, 1)" stroke-width="1.5"></path><path d="M835.62 358.73L965.54 214.56" stroke="rgba(188, 41, 22, 1)" stroke-width="1.5"></path><path d="M796.77 537.65L796.77 537.65" stroke="rgba(188, 41, 22, 1)" stroke-width="1.5"></path><path d="M796.77 537.65L663.23 556.3" stroke="rgba(188, 41, 22, 1)" stroke-width="1.5"></path><path d="M796.77 537.65L854.91 684.03" stroke="rgba(188, 41, 22, 1)" stroke-width="1.5"></path><path d="M796.77 537.65L977.31 520.96" stroke="rgba(188, 41, 22, 1)" stroke-width="1.5"></path><path d="M796.77 537.65L696.96 366.29" stroke="rgba(188, 41, 22, 1)" stroke-width="1.5"></path><path d="M854.91 684.03L854.91 684.03" stroke="rgba(188, 41, 22, 1)" stroke-width="1.5"></path><path d="M854.91 684.03L977.31 520.96" stroke="rgba(188, 41, 22, 1)" stroke-width="1.5"></path><path d="M854.91 684.03L663.23 556.3" stroke="rgba(188, 41, 22, 1)" stroke-width="1.5"></path><path d="M999.42 -40.54L999.42 -40.54" stroke="rgba(188, 41, 22, 1)" stroke-width="1.5"></path><path d="M999.42 -40.54L995.27 56.54" stroke="rgba(188, 41, 22, 1)" stroke-width="1.5"></path><path d="M999.42 -40.54L1122.17 -108.41" stroke="rgba(188, 41, 22, 1)" stroke-width="1.5"></path><path d="M999.42 -40.54L1120.84 71.59" stroke="rgba(188, 41, 22, 1)" stroke-width="1.5"></path><path d="M995.27 56.54L995.27 56.54" stroke="rgba(188, 41, 22, 1)" stroke-width="1.5"></path><path d="M995.27 56.54L1120.84 71.59" stroke="rgba(188, 41, 22, 1)" stroke-width="1.5"></path><path d="M995.27 56.54L965.54 214.56" stroke="rgba(188, 41, 22, 1)" stroke-width="1.5"></path><path d="M995.27 56.54L1122.17 -108.41" stroke="rgba(188, 41, 22, 1)" stroke-width="1.5"></path><path d="M965.54 214.56L965.54 214.56" stroke="rgba(188, 41, 22, 1)" stroke-width="1.5"></path><path d="M965.54 214.56L1144.53 258.49" stroke="rgba(188, 41, 22, 1)" stroke-width="1.5"></path><path d="M981.46 411.58L981.46 411.58" stroke="rgba(188, 41, 22, 1)" stroke-width="1.5"></path><path d="M981.46 411.58L977.31 520.96" stroke="rgba(188, 41, 22, 1)" stroke-width="1.5"></path><path d="M981.46 411.58L1130.61 351.82" stroke="rgba(188, 41, 22, 1)" stroke-width="1.5"></path><path d="M981.46 411.58L965.54 214.56" stroke="rgba(188, 41, 22, 1)" stroke-width="1.5"></path><path d="M981.46 411.58L796.77 537.65" stroke="rgba(188, 41, 22, 1)" stroke-width="1.5"></path><path d="M977.31 520.96L977.31 520.96" stroke="rgba(188, 41, 22, 1)" stroke-width="1.5"></path><path d="M1122.17 -108.41L1122.17 -108.41" stroke="rgba(188, 41, 22, 1)" stroke-width="1.5"></path><path d="M1122.17 -108.41L1120.84 71.59" stroke="rgba(188, 41, 22, 1)" stroke-width="1.5"></path><path d="M1120.84 71.59L1120.84 71.59" stroke="rgba(188, 41, 22, 1)" stroke-width="1.5"></path><path d="M1120.84 71.59L1279.15 62.02" stroke="rgba(188, 41, 22, 1)" stroke-width="1.5"></path><path d="M1144.53 258.49L1144.53 258.49" stroke="rgba(188, 41, 22, 1)" stroke-width="1.5"></path><path d="M1144.53 258.49L1130.61 351.82" stroke="rgba(188, 41, 22, 1)" stroke-width="1.5"></path><path d="M1144.53 258.49L1243.62 191.76" stroke="rgba(188, 41, 22, 1)" stroke-width="1.5"></path><path d="M1144.53 258.49L1252.68 356.65" stroke="rgba(188, 41, 22, 1)" stroke-width="1.5"></path><path d="M1144.53 258.49L1120.84 71.59" stroke="rgba(188, 41, 22, 1)" stroke-width="1.5"></path><path d="M1130.61 351.82L1130.61 351.82" stroke="rgba(188, 41, 22, 1)" stroke-width="1.5"></path><path d="M1110.45 702.33L1110.45 702.33" stroke="rgba(188, 41, 22, 1)" stroke-width="1.5"></path><path d="M1110.45 702.33L1284.43 692.3" stroke="rgba(188, 41, 22, 1)" stroke-width="1.5"></path><path d="M1110.45 702.33L1245.52 551.28" stroke="rgba(188, 41, 22, 1)" stroke-width="1.5"></path><path d="M1110.45 702.33L977.31 520.96" stroke="rgba(188, 41, 22, 1)" stroke-width="1.5"></path><path d="M1305.83 -108.56L1305.83 -108.56" stroke="rgba(188, 41, 22, 1)" stroke-width="1.5"></path><path d="M1305.83 -108.56L1398.43 -77.85" stroke="rgba(188, 41, 22, 1)" stroke-width="1.5"></path><path d="M1305.83 -108.56L1279.15 62.02" stroke="rgba(188, 41, 22, 1)" stroke-width="1.5"></path><path d="M1305.83 -108.56L1122.17 -108.41" stroke="rgba(188, 41, 22, 1)" stroke-width="1.5"></path><path d="M1305.83 -108.56L1120.84 71.59" stroke="rgba(188, 41, 22, 1)" stroke-width="1.5"></path><path d="M1279.15 62.02L1279.15 62.02" stroke="rgba(188, 41, 22, 1)" stroke-width="1.5"></path><path d="M1279.15 62.02L1243.62 191.76" stroke="rgba(188, 41, 22, 1)" stroke-width="1.5"></path><path d="M1279.15 62.02L1398.43 -77.85" stroke="rgba(188, 41, 22, 1)" stroke-width="1.5"></path><path d="M1243.62 191.76L1243.62 191.76" stroke="rgba(188, 41, 22, 1)" stroke-width="1.5"></path><path d="M1252.68 356.65L1252.68 356.65" stroke="rgba(188, 41, 22, 1)" stroke-width="1.5"></path><path d="M1252.68 356.65L1130.61 351.82" stroke="rgba(188, 41, 22, 1)" stroke-width="1.5"></path><path d="M1252.68 356.65L1243.62 191.76" stroke="rgba(188, 41, 22, 1)" stroke-width="1.5"></path><path d="M1252.68 356.65L1245.52 551.28" stroke="rgba(188, 41, 22, 1)" stroke-width="1.5"></path><path d="M1252.68 356.65L1456.66 357.71" stroke="rgba(188, 41, 22, 1)" stroke-width="1.5"></path><path d="M1245.52 551.28L1245.52 551.28" stroke="rgba(188, 41, 22, 1)" stroke-width="1.5"></path><path d="M1245.52 551.28L1284.43 692.3" stroke="rgba(188, 41, 22, 1)" stroke-width="1.5"></path><path d="M1245.52 551.28L1431.31 651.52" stroke="rgba(188, 41, 22, 1)" stroke-width="1.5"></path><path d="M1245.52 551.28L1130.61 351.82" stroke="rgba(188, 41, 22, 1)" stroke-width="1.5"></path><path d="M1284.43 692.3L1284.43 692.3" stroke="rgba(188, 41, 22, 1)" stroke-width="1.5"></path><path d="M1284.43 692.3L1431.31 651.52" stroke="rgba(188, 41, 22, 1)" stroke-width="1.5"></path><path d="M1398.43 -77.85L1398.43 -77.85" stroke="rgba(188, 41, 22, 1)" stroke-width="1.5"></path><path d="M1398.43 -77.85L1552.53 49.65" stroke="rgba(188, 41, 22, 1)" stroke-width="1.5"></path><path d="M1398.43 -77.85L1596.75 -50.41" stroke="rgba(188, 41, 22, 1)" stroke-width="1.5"></path><path d="M1398.43 -77.85L1122.17 -108.41" stroke="rgba(188, 41, 22, 1)" stroke-width="1.5"></path><path d="M1398.43 -77.85L1243.62 191.76" stroke="rgba(188, 41, 22, 1)" stroke-width="1.5"></path><path d="M1446.1 233.65L1446.1 233.65" stroke="rgba(188, 41, 22, 1)" stroke-width="1.5"></path><path d="M1446.1 233.65L1564.76 203.89" stroke="rgba(188, 41, 22, 1)" stroke-width="1.5"></path><path d="M1446.1 233.65L1456.66 357.71" stroke="rgba(188, 41, 22, 1)" stroke-width="1.5"></path><path d="M1446.1 233.65L1243.62 191.76" stroke="rgba(188, 41, 22, 1)" stroke-width="1.5"></path><path d="M1446.1 233.65L1552.53 49.65" stroke="rgba(188, 41, 22, 1)" stroke-width="1.5"></path><path d="M1446.1 233.65L1585.6 399.49" stroke="rgba(188, 41, 22, 1)" stroke-width="1.5"></path><path d="M1456.66 357.71L1456.66 357.71" stroke="rgba(188, 41, 22, 1)" stroke-width="1.5"></path><path d="M1456.66 357.71L1585.6 399.49" stroke="rgba(188, 41, 22, 1)" stroke-width="1.5"></path><path d="M1431.31 651.52L1431.31 651.52" stroke="rgba(188, 41, 22, 1)" stroke-width="1.5"></path><path d="M1431.31 651.52L1594.89 655.63" stroke="rgba(188, 41, 22, 1)" stroke-width="1.5"></path><path d="M1596.75 -50.41L1596.75 -50.41" stroke="rgba(188, 41, 22, 1)" stroke-width="1.5"></path><path d="M1596.75 -50.41L1552.53 49.65" stroke="rgba(188, 41, 22, 1)" stroke-width="1.5"></path><path d="M1596.75 -50.41L1564.76 203.89" stroke="rgba(188, 41, 22, 1)" stroke-width="1.5"></path><path d="M1596.75 -50.41L1305.83 -108.56" stroke="rgba(188, 41, 22, 1)" stroke-width="1.5"></path><path d="M1596.75 -50.41L1446.1 233.65" stroke="rgba(188, 41, 22, 1)" stroke-width="1.5"></path><path d="M1596.75 -50.41L1279.15 62.02" stroke="rgba(188, 41, 22, 1)" stroke-width="1.5"></path><path d="M1552.53 49.65L1552.53 49.65" stroke="rgba(188, 41, 22, 1)" stroke-width="1.5"></path><path d="M1552.53 49.65L1564.76 203.89" stroke="rgba(188, 41, 22, 1)" stroke-width="1.5"></path><path d="M1564.76 203.89L1564.76 203.89" stroke="rgba(188, 41, 22, 1)" stroke-width="1.5"></path><path d="M1564.76 203.89L1456.66 357.71" stroke="rgba(188, 41, 22, 1)" stroke-width="1.5"></path><path d="M1564.76 203.89L1585.6 399.49" stroke="rgba(188, 41, 22, 1)" stroke-width="1.5"></path><path d="M1564.76 203.89L1279.15 62.02" stroke="rgba(188, 41, 22, 1)" stroke-width="1.5"></path><path d="M1585.6 399.49L1585.6 399.49" stroke="rgba(188, 41, 22, 1)" stroke-width="1.5"></path><path d="M1585.6 399.49L1594.89 655.63" stroke="rgba(188, 41, 22, 1)" stroke-width="1.5"></path><path d="M1594.89 655.63L1594.89 655.63" stroke="rgba(188, 41, 22, 1)" stroke-width="1.5"></path><path d="M1594.89 655.63L1284.43 692.3" stroke="rgba(188, 41, 22, 1)" stroke-width="1.5"></path><path d="M1594.89 655.63L1456.66 357.71" stroke="rgba(188, 41, 22, 1)" stroke-width="1.5"></path><circle r="5" cx="-83.72" cy="408.44" fill="rgba(188, 41, 22, 1)"></circle><circle r="5" cx="-94.38" cy="522.3" fill="rgba(188, 41, 22, 1)"></circle><circle r="5" cx="-111.94" cy="667.92" fill="rgba(188, 41, 22, 1)"></circle><circle r="5" cx="106.33" cy="357.2" fill="rgba(188, 41, 22, 1)"></circle><circle r="5" cx="78.84" cy="493.99" fill="rgba(188, 41, 22, 1)"></circle><circle r="5" cx="88.94" cy="645.73" fill="rgba(188, 41, 22, 1)"></circle><circle r="5" cx="237.33" cy="411.64" fill="rgba(188, 41, 22, 1)"></circle><circle r="5" cx="191.25" cy="528.1" fill="rgba(188, 41, 22, 1)"></circle><circle r="5" cx="200.99" cy="708.41" fill="rgba(188, 41, 22, 1)"></circle><circle r="5" cx="353.36" cy="527.96" fill="rgba(188, 41, 22, 1)"></circle><circle r="5" cx="338.35" cy="703.16" fill="rgba(188, 41, 22, 1)"></circle><circle r="5" cx="547.04" cy="389.81" fill="rgba(188, 41, 22, 1)"></circle><circle r="5" cx="529.22" cy="537.39" fill="rgba(188, 41, 22, 1)"></circle><circle r="5" cx="497.39" cy="637.75" fill="rgba(188, 41, 22, 1)"></circle><circle r="5" cx="665.81" cy="232.63" fill="rgba(188, 41, 22, 1)"></circle><circle r="5" cx="696.96" cy="366.29" fill="rgba(188, 41, 22, 1)"></circle><circle r="5" cx="663.23" cy="556.3" fill="rgba(188, 41, 22, 1)"></circle><circle r="5" cx="709.13" cy="678.33" fill="rgba(188, 41, 22, 1)"></circle><circle r="5" cx="833.13" cy="209.76" fill="rgba(188, 41, 22, 1)"></circle><circle r="5" cx="835.62" cy="358.73" fill="rgba(188, 41, 22, 1)"></circle><circle r="5" cx="796.77" cy="537.65" fill="rgba(188, 41, 22, 1)"></circle><circle r="5" cx="854.91" cy="684.03" fill="rgba(188, 41, 22, 1)"></circle><circle r="5" cx="999.42" cy="-40.54" fill="rgba(188, 41, 22, 1)"></circle><circle r="5" cx="995.27" cy="56.54" fill="rgba(188, 41, 22, 1)"></circle><circle r="5" cx="965.54" cy="214.56" fill="rgba(188, 41, 22, 1)"></circle><circle r="5" cx="981.46" cy="411.58" fill="rgba(188, 41, 22, 1)"></circle><circle r="5" cx="977.31" cy="520.96" fill="rgba(188, 41, 22, 1)"></circle><circle r="5" cx="1122.17" cy="-108.41" fill="rgba(188, 41, 22, 1)"></circle><circle r="5" cx="1120.84" cy="71.59" fill="rgba(188, 41, 22, 1)"></circle><circle r="5" cx="1144.53" cy="258.49" fill="rgba(188, 41, 22, 1)"></circle><circle r="5" cx="1130.61" cy="351.82" fill="rgba(188, 41, 22, 1)"></circle><circle r="5" cx="1110.45" cy="702.33" fill="rgba(188, 41, 22, 1)"></circle><circle r="5" cx="1305.83" cy="-108.56" fill="rgba(188, 41, 22, 1)"></circle><circle r="5" cx="1279.15" cy="62.02" fill="rgba(188, 41, 22, 1)"></circle><circle r="5" cx="1243.62" cy="191.76" fill="rgba(188, 41, 22, 1)"></circle><circle r="5" cx="1252.68" cy="356.65" fill="rgba(188, 41, 22, 1)"></circle><circle r="5" cx="1245.52" cy="551.28" fill="rgba(188, 41, 22, 1)"></circle><circle r="5" cx="1284.43" cy="692.3" fill="rgba(188, 41, 22, 1)"></circle><circle r="5" cx="1398.43" cy="-77.85" fill="rgba(188, 41, 22, 1)"></circle><circle r="5" cx="1446.1" cy="233.65" fill="rgba(188, 41, 22, 1)"></circle><circle r="5" cx="1456.66" cy="357.71" fill="rgba(188, 41, 22, 1)"></circle><circle r="5" cx="1431.31" cy="651.52" fill="rgba(188, 41, 22, 1)"></circle><circle r="5" cx="1596.75" cy="-50.41" fill="rgba(188, 41, 22, 1)"></circle><circle r="5" cx="1552.53" cy="49.65" fill="rgba(188, 41, 22, 1)"></circle><circle r="5" cx="1564.76" cy="203.89" fill="rgba(188, 41, 22, 1)"></circle><circle r="5" cx="1585.6" cy="399.49" fill="rgba(188, 41, 22, 1)"></circle><circle r="5" cx="1594.89" cy="655.63" fill="rgba(188, 41, 22, 1)"></circle><path d="M-84.21 541.09L-84.21 541.09" stroke="hsl(222.20000000000005, 75.8%, 42.1%)" stroke-width="1.5"></path><path d="M-84.21 541.09L-104.44 669.23" stroke="hsl(222.20000000000005, 75.8%, 42.1%)" stroke-width="1.5"></path><path d="M-84.21 541.09L74.58 509.54" stroke="hsl(222.20000000000005, 75.8%, 42.1%)" stroke-width="1.5"></path><path d="M-84.21 541.09L78.49 674.66" stroke="hsl(222.20000000000005, 75.8%, 42.1%)" stroke-width="1.5"></path><path d="M-84.21 541.09L236.12 555.08" stroke="hsl(222.20000000000005, 75.8%, 42.1%)" stroke-width="1.5"></path><path d="M795.84 558.42L795.84 558.42" stroke="hsl(222.20000000000005, 75.8%, 42.1%)" stroke-width="1.5"></path><path d="M795.84 558.42L655.29 495.03" stroke="hsl(222.20000000000005, 75.8%, 42.1%)" stroke-width="1.5"></path><path d="M795.84 558.42L690.02 680.45" stroke="hsl(222.20000000000005, 75.8%, 42.1%)" stroke-width="1.5"></path><path d="M795.84 558.42L811.68 373.21" stroke="hsl(222.20000000000005, 75.8%, 42.1%)" stroke-width="1.5"></path><path d="M795.84 558.42L1002.55 561.18" stroke="hsl(222.20000000000005, 75.8%, 42.1%)" stroke-width="1.5"></path><path d="M795.84 558.42L984.41 656.87" stroke="hsl(222.20000000000005, 75.8%, 42.1%)" stroke-width="1.5"></path><path d="M795.84 558.42L641.29 384.84" stroke="hsl(222.20000000000005, 75.8%, 42.1%)" stroke-width="1.5"></path><path d="M983.75 400.78L983.75 400.78" stroke="hsl(222.20000000000005, 75.8%, 42.1%)" stroke-width="1.5"></path><path d="M983.75 400.78L1115.64 364.61" stroke="hsl(222.20000000000005, 75.8%, 42.1%)" stroke-width="1.5"></path><path d="M983.75 400.78L984.45 247.23" stroke="hsl(222.20000000000005, 75.8%, 42.1%)" stroke-width="1.5"></path><path d="M983.75 400.78L1002.55 561.18" stroke="hsl(222.20000000000005, 75.8%, 42.1%)" stroke-width="1.5"></path><path d="M983.75 400.78L811.68 373.21" stroke="hsl(222.20000000000005, 75.8%, 42.1%)" stroke-width="1.5"></path><path d="M983.75 400.78L1147.46 523.71" stroke="hsl(222.20000000000005, 75.8%, 42.1%)" stroke-width="1.5"></path><path d="M1115.64 364.61L1115.64 364.61" stroke="hsl(222.20000000000005, 75.8%, 42.1%)" stroke-width="1.5"></path><path d="M1115.64 364.61L1261.3 400.76" stroke="hsl(222.20000000000005, 75.8%, 42.1%)" stroke-width="1.5"></path><path d="M1115.64 364.61L1124.64 207.13" stroke="hsl(222.20000000000005, 75.8%, 42.1%)" stroke-width="1.5"></path><path d="M1115.64 364.61L1147.46 523.71" stroke="hsl(222.20000000000005, 75.8%, 42.1%)" stroke-width="1.5"></path><path d="M1115.64 364.61L984.45 247.23" stroke="hsl(222.20000000000005, 75.8%, 42.1%)" stroke-width="1.5"></path><path d="M1132.08 683.6L1132.08 683.6" stroke="hsl(222.20000000000005, 75.8%, 42.1%)" stroke-width="1.5"></path><path d="M1132.08 683.6L984.41 656.87" stroke="hsl(222.20000000000005, 75.8%, 42.1%)" stroke-width="1.5"></path><path d="M1132.08 683.6L1147.46 523.71" stroke="hsl(222.20000000000005, 75.8%, 42.1%)" stroke-width="1.5"></path><path d="M1132.08 683.6L1002.55 561.18" stroke="hsl(222.20000000000005, 75.8%, 42.1%)" stroke-width="1.5"></path><path d="M1132.08 683.6L1310.44 644.22" stroke="hsl(222.20000000000005, 75.8%, 42.1%)" stroke-width="1.5"></path><path d="M1264.86 -73.62L1264.86 -73.62" stroke="hsl(222.20000000000005, 75.8%, 42.1%)" stroke-width="1.5"></path><path d="M1264.86 -73.62L1278.47 55.47" stroke="hsl(222.20000000000005, 75.8%, 42.1%)" stroke-width="1.5"></path><path d="M1264.86 -73.62L1410.77 39.4" stroke="hsl(222.20000000000005, 75.8%, 42.1%)" stroke-width="1.5"></path><path d="M1456.9 679.52L1456.9 679.52" stroke="hsl(222.20000000000005, 75.8%, 42.1%)" stroke-width="1.5"></path><path d="M1456.9 679.52L1559.97 699.96" stroke="hsl(222.20000000000005, 75.8%, 42.1%)" stroke-width="1.5"></path><path d="M1456.9 679.52L1310.44 644.22" stroke="hsl(222.20000000000005, 75.8%, 42.1%)" stroke-width="1.5"></path><path d="M1456.9 679.52L1398.15 520.41" stroke="hsl(222.20000000000005, 75.8%, 42.1%)" stroke-width="1.5"></path><path d="M1456.9 679.52L1395.44 411.64" stroke="hsl(222.20000000000005, 75.8%, 42.1%)" stroke-width="1.5"></path><path d="M1456.9 679.52L1132.08 683.6" stroke="hsl(222.20000000000005, 75.8%, 42.1%)" stroke-width="1.5"></path><path d="M1456.9 679.52L1578.1 364.33" stroke="hsl(222.20000000000005, 75.8%, 42.1%)" stroke-width="1.5"></path><path d="M1560.24 -67.42L1560.24 -67.42" stroke="hsl(222.20000000000005, 75.8%, 42.1%)" stroke-width="1.5"></path><path d="M1560.24 -67.42L1455.83 -42.83" stroke="hsl(222.20000000000005, 75.8%, 42.1%)" stroke-width="1.5"></path><path d="M1560.24 -67.42L1580.25 92.14" stroke="hsl(222.20000000000005, 75.8%, 42.1%)" stroke-width="1.5"></path><path d="M1560.24 -67.42L1410.77 39.4" stroke="hsl(222.20000000000005, 75.8%, 42.1%)" stroke-width="1.5"></path><path d="M1559.97 699.96L1559.97 699.96" stroke="hsl(222.20000000000005, 75.8%, 42.1%)" stroke-width="1.5"></path><path d="M1559.97 699.96L1398.15 520.41" stroke="hsl(222.20000000000005, 75.8%, 42.1%)" stroke-width="1.5"></path><path d="M1559.97 699.96L1310.44 644.22" stroke="hsl(222.20000000000005, 75.8%, 42.1%)" stroke-width="1.5"></path><path d="M1559.97 699.96L1395.44 411.64" stroke="hsl(222.20000000000005, 75.8%, 42.1%)" stroke-width="1.5"></path><path d="M1559.97 699.96L1578.1 364.33" stroke="hsl(222.20000000000005, 75.8%, 42.1%)" stroke-width="1.5"></path><path d="M-104.44 669.23L-104.44 669.23" stroke="hsl(222.20000000000005, 75.8%, 42.1%)" stroke-width="1.5"></path><path d="M-104.44 669.23L78.49 674.66" stroke="hsl(222.20000000000005, 75.8%, 42.1%)" stroke-width="1.5"></path><path d="M74.58 509.54L74.58 509.54" stroke="hsl(222.20000000000005, 75.8%, 42.1%)" stroke-width="1.5"></path><path d="M74.58 509.54L78.49 674.66" stroke="hsl(222.20000000000005, 75.8%, 42.1%)" stroke-width="1.5"></path><path d="M74.58 509.54L236.12 555.08" stroke="hsl(222.20000000000005, 75.8%, 42.1%)" stroke-width="1.5"></path><path d="M74.58 509.54L232.24 684.08" stroke="hsl(222.20000000000005, 75.8%, 42.1%)" stroke-width="1.5"></path><path d="M74.58 509.54L-104.44 669.23" stroke="hsl(222.20000000000005, 75.8%, 42.1%)" stroke-width="1.5"></path><path d="M78.49 674.66L78.49 674.66" stroke="hsl(222.20000000000005, 75.8%, 42.1%)" stroke-width="1.5"></path><path d="M78.49 674.66L232.24 684.08" stroke="hsl(222.20000000000005, 75.8%, 42.1%)" stroke-width="1.5"></path><path d="M236.12 555.08L236.12 555.08" stroke="hsl(222.20000000000005, 75.8%, 42.1%)" stroke-width="1.5"></path><path d="M236.12 555.08L232.24 684.08" stroke="hsl(222.20000000000005, 75.8%, 42.1%)" stroke-width="1.5"></path><path d="M236.12 555.08L389.66 517.03" stroke="hsl(222.20000000000005, 75.8%, 42.1%)" stroke-width="1.5"></path><path d="M232.24 684.08L232.24 684.08" stroke="hsl(222.20000000000005, 75.8%, 42.1%)" stroke-width="1.5"></path><path d="M232.24 684.08L350.47 684.15" stroke="hsl(222.20000000000005, 75.8%, 42.1%)" stroke-width="1.5"></path><path d="M389.66 517.03L389.66 517.03" stroke="hsl(222.20000000000005, 75.8%, 42.1%)" stroke-width="1.5"></path><path d="M389.66 517.03L528.82 521.1" stroke="hsl(222.20000000000005, 75.8%, 42.1%)" stroke-width="1.5"></path><path d="M389.66 517.03L350.47 684.15" stroke="hsl(222.20000000000005, 75.8%, 42.1%)" stroke-width="1.5"></path><path d="M389.66 517.03L522.88 671.74" stroke="hsl(222.20000000000005, 75.8%, 42.1%)" stroke-width="1.5"></path><path d="M389.66 517.03L232.24 684.08" stroke="hsl(222.20000000000005, 75.8%, 42.1%)" stroke-width="1.5"></path><path d="M350.47 684.15L350.47 684.15" stroke="hsl(222.20000000000005, 75.8%, 42.1%)" stroke-width="1.5"></path><path d="M350.47 684.15L236.12 555.08" stroke="hsl(222.20000000000005, 75.8%, 42.1%)" stroke-width="1.5"></path><path d="M350.47 684.15L522.88 671.74" stroke="hsl(222.20000000000005, 75.8%, 42.1%)" stroke-width="1.5"></path><path d="M528.82 521.1L528.82 521.1" stroke="hsl(222.20000000000005, 75.8%, 42.1%)" stroke-width="1.5"></path><path d="M528.82 521.1L655.29 495.03" stroke="hsl(222.20000000000005, 75.8%, 42.1%)" stroke-width="1.5"></path><path d="M528.82 521.1L522.88 671.74" stroke="hsl(222.20000000000005, 75.8%, 42.1%)" stroke-width="1.5"></path><path d="M528.82 521.1L641.29 384.84" stroke="hsl(222.20000000000005, 75.8%, 42.1%)" stroke-width="1.5"></path><path d="M522.88 671.74L522.88 671.74" stroke="hsl(222.20000000000005, 75.8%, 42.1%)" stroke-width="1.5"></path><path d="M522.88 671.74L690.02 680.45" stroke="hsl(222.20000000000005, 75.8%, 42.1%)" stroke-width="1.5"></path><path d="M641.29 384.84L641.29 384.84" stroke="hsl(222.20000000000005, 75.8%, 42.1%)" stroke-width="1.5"></path><path d="M641.29 384.84L655.29 495.03" stroke="hsl(222.20000000000005, 75.8%, 42.1%)" stroke-width="1.5"></path><path d="M641.29 384.84L811.68 373.21" stroke="hsl(222.20000000000005, 75.8%, 42.1%)" stroke-width="1.5"></path><path d="M655.29 495.03L655.29 495.03" stroke="hsl(222.20000000000005, 75.8%, 42.1%)" stroke-width="1.5"></path><path d="M690.02 680.45L690.02 680.45" stroke="hsl(222.20000000000005, 75.8%, 42.1%)" stroke-width="1.5"></path><path d="M811.68 373.21L811.68 373.21" stroke="hsl(222.20000000000005, 75.8%, 42.1%)" stroke-width="1.5"></path><path d="M811.68 373.21L655.29 495.03" stroke="hsl(222.20000000000005, 75.8%, 42.1%)" stroke-width="1.5"></path><path d="M984.45 247.23L984.45 247.23" stroke="hsl(222.20000000000005, 75.8%, 42.1%)" stroke-width="1.5"></path><path d="M984.45 247.23L1124.64 207.13" stroke="hsl(222.20000000000005, 75.8%, 42.1%)" stroke-width="1.5"></path><path d="M1002.55 561.18L1002.55 561.18" stroke="hsl(222.20000000000005, 75.8%, 42.1%)" stroke-width="1.5"></path><path d="M1002.55 561.18L984.41 656.87" stroke="hsl(222.20000000000005, 75.8%, 42.1%)" stroke-width="1.5"></path><path d="M984.41 656.87L984.41 656.87" stroke="hsl(222.20000000000005, 75.8%, 42.1%)" stroke-width="1.5"></path><path d="M984.41 656.87L1147.46 523.71" stroke="hsl(222.20000000000005, 75.8%, 42.1%)" stroke-width="1.5"></path><path d="M984.41 656.87L983.75 400.78" stroke="hsl(222.20000000000005, 75.8%, 42.1%)" stroke-width="1.5"></path><path d="M1139 89.41L1139 89.41" stroke="hsl(222.20000000000005, 75.8%, 42.1%)" stroke-width="1.5"></path><path d="M1139 89.41L1124.64 207.13" stroke="hsl(222.20000000000005, 75.8%, 42.1%)" stroke-width="1.5"></path><path d="M1139 89.41L1278.47 55.47" stroke="hsl(222.20000000000005, 75.8%, 42.1%)" stroke-width="1.5"></path><path d="M1139 89.41L1306.05 195.76" stroke="hsl(222.20000000000005, 75.8%, 42.1%)" stroke-width="1.5"></path><path d="M1124.64 207.13L1124.64 207.13" stroke="hsl(222.20000000000005, 75.8%, 42.1%)" stroke-width="1.5"></path><path d="M1124.64 207.13L1306.05 195.76" stroke="hsl(222.20000000000005, 75.8%, 42.1%)" stroke-width="1.5"></path><path d="M1147.46 523.71L1147.46 523.71" stroke="hsl(222.20000000000005, 75.8%, 42.1%)" stroke-width="1.5"></path><path d="M1147.46 523.71L1002.55 561.18" stroke="hsl(222.20000000000005, 75.8%, 42.1%)" stroke-width="1.5"></path><path d="M1147.46 523.71L1261.3 400.76" stroke="hsl(222.20000000000005, 75.8%, 42.1%)" stroke-width="1.5"></path><path d="M1147.46 523.71L1310.44 644.22" stroke="hsl(222.20000000000005, 75.8%, 42.1%)" stroke-width="1.5"></path><path d="M1278.47 55.47L1278.47 55.47" stroke="hsl(222.20000000000005, 75.8%, 42.1%)" stroke-width="1.5"></path><path d="M1278.47 55.47L1410.77 39.4" stroke="hsl(222.20000000000005, 75.8%, 42.1%)" stroke-width="1.5"></path><path d="M1278.47 55.47L1306.05 195.76" stroke="hsl(222.20000000000005, 75.8%, 42.1%)" stroke-width="1.5"></path><path d="M1278.47 55.47L1455.83 -42.83" stroke="hsl(222.20000000000005, 75.8%, 42.1%)" stroke-width="1.5"></path><path d="M1278.47 55.47L1124.64 207.13" stroke="hsl(222.20000000000005, 75.8%, 42.1%)" stroke-width="1.5"></path><path d="M1306.05 195.76L1306.05 195.76" stroke="hsl(222.20000000000005, 75.8%, 42.1%)" stroke-width="1.5"></path><path d="M1306.05 195.76L1460.97 251.09" stroke="hsl(222.20000000000005, 75.8%, 42.1%)" stroke-width="1.5"></path><path d="M1306.05 195.76L1410.77 39.4" stroke="hsl(222.20000000000005, 75.8%, 42.1%)" stroke-width="1.5"></path><path d="M1261.3 400.76L1261.3 400.76" stroke="hsl(222.20000000000005, 75.8%, 42.1%)" stroke-width="1.5"></path><path d="M1261.3 400.76L1395.44 411.64" stroke="hsl(222.20000000000005, 75.8%, 42.1%)" stroke-width="1.5"></path><path d="M1310.44 644.22L1310.44 644.22" stroke="hsl(222.20000000000005, 75.8%, 42.1%)" stroke-width="1.5"></path><path d="M1310.44 644.22L1398.15 520.41" stroke="hsl(222.20000000000005, 75.8%, 42.1%)" stroke-width="1.5"></path><path d="M1310.44 644.22L1395.44 411.64" stroke="hsl(222.20000000000005, 75.8%, 42.1%)" stroke-width="1.5"></path><path d="M1455.83 -42.83L1455.83 -42.83" stroke="hsl(222.20000000000005, 75.8%, 42.1%)" stroke-width="1.5"></path><path d="M1455.83 -42.83L1410.77 39.4" stroke="hsl(222.20000000000005, 75.8%, 42.1%)" stroke-width="1.5"></path><path d="M1455.83 -42.83L1580.25 92.14" stroke="hsl(222.20000000000005, 75.8%, 42.1%)" stroke-width="1.5"></path><path d="M1455.83 -42.83L1264.86 -73.62" stroke="hsl(222.20000000000005, 75.8%, 42.1%)" stroke-width="1.5"></path><path d="M1410.77 39.4L1410.77 39.4" stroke="hsl(222.20000000000005, 75.8%, 42.1%)" stroke-width="1.5"></path><path d="M1410.77 39.4L1580.25 92.14" stroke="hsl(222.20000000000005, 75.8%, 42.1%)" stroke-width="1.5"></path><path d="M1460.97 251.09L1460.97 251.09" stroke="hsl(222.20000000000005, 75.8%, 42.1%)" stroke-width="1.5"></path><path d="M1460.97 251.09L1581.36 197.83" stroke="hsl(222.20000000000005, 75.8%, 42.1%)" stroke-width="1.5"></path><path d="M1460.97 251.09L1578.1 364.33" stroke="hsl(222.20000000000005, 75.8%, 42.1%)" stroke-width="1.5"></path><path d="M1460.97 251.09L1395.44 411.64" stroke="hsl(222.20000000000005, 75.8%, 42.1%)" stroke-width="1.5"></path><path d="M1395.44 411.64L1395.44 411.64" stroke="hsl(222.20000000000005, 75.8%, 42.1%)" stroke-width="1.5"></path><path d="M1395.44 411.64L1398.15 520.41" stroke="hsl(222.20000000000005, 75.8%, 42.1%)" stroke-width="1.5"></path><path d="M1395.44 411.64L1578.1 364.33" stroke="hsl(222.20000000000005, 75.8%, 42.1%)" stroke-width="1.5"></path><path d="M1395.44 411.64L1306.05 195.76" stroke="hsl(222.20000000000005, 75.8%, 42.1%)" stroke-width="1.5"></path><path d="M1398.15 520.41L1398.15 520.41" stroke="hsl(222.20000000000005, 75.8%, 42.1%)" stroke-width="1.5"></path><path d="M1580.25 92.14L1580.25 92.14" stroke="hsl(222.20000000000005, 75.8%, 42.1%)" stroke-width="1.5"></path><path d="M1580.25 92.14L1581.36 197.83" stroke="hsl(222.20000000000005, 75.8%, 42.1%)" stroke-width="1.5"></path><path d="M1581.36 197.83L1581.36 197.83" stroke="hsl(222.20000000000005, 75.8%, 42.1%)" stroke-width="1.5"></path><path d="M1581.36 197.83L1578.1 364.33" stroke="hsl(222.20000000000005, 75.8%, 42.1%)" stroke-width="1.5"></path><path d="M1581.36 197.83L1410.77 39.4" stroke="hsl(222.20000000000005, 75.8%, 42.1%)" stroke-width="1.5"></path><path d="M1581.36 197.83L1560.24 -67.42" stroke="hsl(222.20000000000005, 75.8%, 42.1%)" stroke-width="1.5"></path><path d="M1578.1 364.33L1578.1 364.33" stroke="hsl(222.20000000000005, 75.8%, 42.1%)" stroke-width="1.5"></path><circle r="25" cx="-84.21" cy="541.09" fill="url(#SvgjsRadialGradient1023)"></circle><circle r="25" cx="795.84" cy="558.42" fill="url(#SvgjsRadialGradient1023)"></circle><circle r="25" cx="983.75" cy="400.78" fill="url(#SvgjsRadialGradient1023)"></circle><circle r="25" cx="1115.64" cy="364.61" fill="url(#SvgjsRadialGradient1023)"></circle><circle r="25" cx="1132.08" cy="683.6" fill="url(#SvgjsRadialGradient1023)"></circle><circle r="25" cx="1264.86" cy="-73.62" fill="url(#SvgjsRadialGradient1023)"></circle><circle r="25" cx="1456.9" cy="679.52" fill="url(#SvgjsRadialGradient1023)"></circle><circle r="25" cx="1560.24" cy="-67.42" fill="url(#SvgjsRadialGradient1023)"></circle><circle r="25" cx="1559.97" cy="699.96" fill="url(#SvgjsRadialGradient1023)"></circle><circle r="5" cx="-104.44" cy="669.23" fill="#8a9cc8"></circle><circle r="5" cx="74.58" cy="509.54" fill="#8a9cc8"></circle><circle r="5" cx="78.49" cy="674.66" fill="#8a9cc8"></circle><circle r="5" cx="236.12" cy="555.08" fill="#8a9cc8"></circle><circle r="5" cx="232.24" cy="684.08" fill="#8a9cc8"></circle><circle r="5" cx="389.66" cy="517.03" fill="#8a9cc8"></circle><circle r="5" cx="350.47" cy="684.15" fill="#8a9cc8"></circle><circle r="5" cx="528.82" cy="521.1" fill="#8a9cc8"></circle><circle r="5" cx="522.88" cy="671.74" fill="#8a9cc8"></circle><circle r="5" cx="641.29" cy="384.84" fill="#8a9cc8"></circle><circle r="5" cx="655.29" cy="495.03" fill="#8a9cc8"></circle><circle r="5" cx="690.02" cy="680.45" fill="#8a9cc8"></circle><circle r="5" cx="811.68" cy="373.21" fill="#8a9cc8"></circle><circle r="5" cx="984.45" cy="247.23" fill="#8a9cc8"></circle><circle r="5" cx="1002.55" cy="561.18" fill="#8a9cc8"></circle><circle r="5" cx="984.41" cy="656.87" fill="#8a9cc8"></circle><circle r="5" cx="1139" cy="89.41" fill="#8a9cc8"></circle><circle r="5" cx="1124.64" cy="207.13" fill="#8a9cc8"></circle><circle r="5" cx="1147.46" cy="523.71" fill="#8a9cc8"></circle><circle r="5" cx="1278.47" cy="55.47" fill="#8a9cc8"></circle><circle r="5" cx="1306.05" cy="195.76" fill="#8a9cc8"></circle><circle r="5" cx="1261.3" cy="400.76" fill="#8a9cc8"></circle><circle r="5" cx="1310.44" cy="644.22" fill="#8a9cc8"></circle><circle r="5" cx="1455.83" cy="-42.83" fill="#8a9cc8"></circle><circle r="5" cx="1410.77" cy="39.4" fill="#8a9cc8"></circle><circle r="5" cx="1460.97" cy="251.09" fill="#8a9cc8"></circle><circle r="5" cx="1395.44" cy="411.64" fill="#8a9cc8"></circle><circle r="5" cx="1398.15" cy="520.41" fill="#8a9cc8"></circle><circle r="5" cx="1580.25" cy="92.14" fill="#8a9cc8"></circle><circle r="5" cx="1581.36" cy="197.83" fill="#8a9cc8"></circle><circle r="5" cx="1578.1" cy="364.33" fill="#8a9cc8"></circle></g><defs><mask id="SvgjsMask1022"><rect width="1440" height="563" fill="#ffffff"></rect></mask><radialGradient id="SvgjsRadialGradient1023"><stop stop-color="#ffffff" offset="0.1"></stop><stop stop-color="rgba(20, 57, 145, 1)" offset="0.2"></stop><stop stop-color="rgba(20, 57, 145, 0)" offset="1"></stop></radialGradient></defs></svg>