<svg xmlns="http://www.w3.org/2000/svg" version="1.1" xmlns:xlink="http://www.w3.org/1999/xlink" xmlns:svgjs="http://svgjs.com/svgjs" width="1440" height="662" preserveAspectRatio="none" viewBox="0 0 1440 662"><g mask="url(&quot;#SvgjsMask2560&quot;)" fill="none"><rect width="1440" height="662" x="0" y="0" fill="url(#SvgjsLinearGradient2561)"></rect><path d="M1440 0L1249.99 0L1440 196.18z" fill="rgba(255, 255, 255, .1)"></path><path d="M1249.99 0L1440 196.18L1440 429.88L593.91 0z" fill="rgba(255, 255, 255, .075)"></path><path d="M593.91 0L1440 429.88L1440 483.21L534.53 0z" fill="rgba(255, 255, 255, .05)"></path><path d="M534.53 0L1440 483.21L1440 516.34L423.03999999999996 0z" fill="rgba(255, 255, 255, .025)"></path><path d="M0 662L378.62 662L0 364.68z" fill="rgba(0, 0, 0, .1)"></path><path d="M0 364.68L378.62 662L573.96 662L0 257.73z" fill="rgba(0, 0, 0, .075)"></path><path d="M0 257.73L573.96 662L929.03 662L0 219.73000000000002z" fill="rgba(0, 0, 0, .05)"></path><path d="M0 219.73000000000002L929.03 662L1134.57 662L0 124.89000000000001z" fill="rgba(0, 0, 0, .025)"></path></g><defs><mask id="SvgjsMask2560"><rect width="1440" height="662" fill="#ffffff"></rect></mask><linearGradient x1="13.51%" y1="-29.38%" x2="86.49%" y2="129.38%" gradientUnits="userSpaceOnUse" id="SvgjsLinearGradient2561"><stop stop-color="rgba(14, 42, 71, 1)" offset="0"></stop><stop stop-color="rgba(109, 165, 158, 1)" offset="0.7"></stop></linearGradient></defs></svg>